<svg width="478" height="195" viewBox="0 0 478 195" fill="none" xmlns="http://www.w3.org/2000/svg">
<path d="M188.015 97.1292C188.015 146.557 153.423 190.789 104.761 190.789C156.488 190.789 202.931 148.856 202.931 97.1292C202.931 45.402 156.488 3.46887 104.761 3.46887C153.423 3.46887 188.015 47.701 188.015 97.1292Z" fill="#FFFDFD"/>
<path d="M104.761 190.789C153.423 190.789 188.015 146.557 188.015 97.1292C188.015 47.701 153.423 3.46887 104.761 3.46887M104.761 190.789C55.8398 190.789 15.851 155.344 11.6383 107.517M104.761 190.789C156.488 190.789 202.931 148.856 202.931 97.1292C202.931 45.402 156.488 3.46887 104.761 3.46887M104.761 3.46887C77.7906 3.46887 53.4825 14.8689 36.3927 33.1132C35.5771 33.9839 36.2055 35.3827 37.3985 35.3827H55.7188H144.806C145.965 35.3827 146.613 36.7197 145.895 37.6297L57.4914 149.691C56.7735 150.601 57.4217 151.938 58.5808 151.938H155.56C156.642 151.938 157.308 150.754 156.745 149.829L102.105 60.0036C101.596 59.1675 100.405 59.1065 99.814 59.8863L74.0459 93.8663M74.0459 93.8663C70.7112 91.2886 65.9183 91.9024 63.3407 95.2371C60.763 98.5718 61.3767 103.365 64.7115 105.942C68.0462 108.52 72.8391 107.906 75.4167 104.572C77.9944 101.237 77.3806 96.4439 74.0459 93.8663ZM11.6383 107.517C15.8426 107.22 19.0104 103.571 18.7138 99.3671C18.4171 95.1628 14.7684 91.995 10.564 92.2916C6.35966 92.5883 3.19184 96.237 3.48848 100.441C3.78513 104.646 7.43391 107.814 11.6383 107.517Z" stroke="#FFFDFD" stroke-width="6.9378"/>
<path d="M458.7 130.566C455.652 130.566 452.848 130.109 450.288 129.195C447.728 128.28 445.534 127 443.705 125.354C441.876 123.648 440.474 121.667 439.499 119.411L448.368 115.48C449.282 117.186 450.623 118.619 452.391 119.777C454.22 120.935 456.231 121.514 458.426 121.514C460.803 121.514 462.692 121.118 464.094 120.326C465.557 119.472 466.289 118.314 466.289 116.851C466.289 115.449 465.74 114.382 464.643 113.651C463.546 112.859 461.992 112.219 459.98 111.731L455.683 110.542C451.355 109.445 447.972 107.708 445.534 105.331C443.095 102.892 441.876 100.119 441.876 97.0102C441.876 92.4386 443.339 88.9032 446.265 86.404C449.252 83.9049 453.519 82.6553 459.066 82.6553C461.87 82.6553 464.43 83.082 466.746 83.9353C469.123 84.7278 471.165 85.8859 472.872 87.4098C474.579 88.8727 475.767 90.6099 476.438 92.6215L467.935 96.4616C467.325 94.9378 466.167 93.7796 464.46 92.9872C462.753 92.1338 460.864 91.7071 458.791 91.7071C456.719 91.7071 455.104 92.1643 453.945 93.0786C452.787 93.932 452.208 95.1511 452.208 96.7359C452.208 97.6503 452.726 98.5036 453.763 99.2961C454.799 100.028 456.292 100.637 458.243 101.125L463.637 102.405C466.624 103.136 469.062 104.294 470.952 105.879C472.842 107.403 474.244 109.14 475.158 111.091C476.072 112.981 476.529 114.901 476.529 116.851C476.529 119.594 475.737 122.002 474.152 124.074C472.628 126.147 470.525 127.762 467.843 128.92C465.161 130.018 462.113 130.566 458.7 130.566Z" fill="#D10A11"/>
<path d="M409.961 130.566C405.389 130.566 401.305 129.56 397.709 127.549C394.173 125.476 391.4 122.642 389.388 119.046C387.377 115.449 386.371 111.304 386.371 106.611C386.371 101.917 387.346 97.7722 389.297 94.1758C391.308 90.5795 394.082 87.7755 397.617 85.764C401.153 83.6915 405.206 82.6553 409.778 82.6553C414.35 82.6553 418.403 83.6915 421.938 85.764C425.474 87.7755 428.217 90.5795 430.167 94.1758C432.179 97.7722 433.185 101.917 433.185 106.611C433.185 111.304 432.209 115.449 430.259 119.046C428.308 122.642 425.565 125.476 422.03 127.549C418.495 129.56 414.471 130.566 409.961 130.566ZM409.961 121.149C412.46 121.149 414.685 120.539 416.635 119.32C418.586 118.04 420.11 116.333 421.207 114.2C422.304 112.005 422.853 109.476 422.853 106.611C422.853 103.746 422.274 101.247 421.116 99.1132C420.018 96.9188 418.495 95.2121 416.544 93.993C414.593 92.7129 412.338 92.0729 409.778 92.0729C407.218 92.0729 404.962 92.6824 403.012 93.9015C401.061 95.1206 399.537 96.8274 398.44 99.0218C397.343 101.216 396.794 103.746 396.794 106.611C396.794 109.476 397.343 112.005 398.44 114.2C399.598 116.333 401.153 118.04 403.103 119.32C405.115 120.539 407.401 121.149 409.961 121.149Z" fill="#FFFDFD"/>
<path d="M342.447 129.469V121.88L366.768 92.3471H342.447V83.7524H379.66V91.2499L355.339 120.966H379.843V129.469H342.447Z" fill="#FFFDFD"/>
<path d="M309.924 148.944C306.694 148.944 303.768 148.67 301.147 148.121C298.587 147.573 296.423 146.933 294.655 146.201C292.887 145.47 291.516 144.769 290.54 144.098L294.472 135.869C295.325 136.296 296.453 136.814 297.855 137.424C299.318 138.094 301.025 138.673 302.975 139.161C304.926 139.648 307.12 139.892 309.559 139.892C312.18 139.892 314.526 139.344 316.599 138.246C318.671 137.21 320.287 135.595 321.445 133.401C322.603 131.206 323.182 128.402 323.182 124.989V120.417C321.597 122.977 319.525 124.989 316.965 126.452C314.465 127.854 311.601 128.555 308.37 128.555C304.225 128.555 300.598 127.61 297.489 125.72C294.442 123.831 292.034 121.209 290.266 117.857C288.559 114.443 287.706 110.512 287.706 106.062C287.706 101.308 288.559 97.1931 290.266 93.7187C292.034 90.2442 294.442 87.5317 297.489 85.5811C300.598 83.6306 304.225 82.6553 308.37 82.6553C311.601 82.6553 314.465 83.3867 316.965 84.8497C319.525 86.3126 321.597 88.4155 323.182 91.1585V83.7525H333.423V124.714C333.423 129.896 332.447 134.284 330.497 137.881C328.546 141.538 325.803 144.281 322.268 146.11C318.732 147.999 314.618 148.944 309.924 148.944ZM311.204 119.868C313.521 119.868 315.532 119.259 317.239 118.04C319.007 116.821 320.378 115.175 321.353 113.102C322.329 110.969 322.816 108.531 322.816 105.788C322.816 102.984 322.329 100.546 321.353 98.4732C320.378 96.3397 319.007 94.6939 317.239 93.5358C315.471 92.3167 313.429 91.7071 311.113 91.7071C308.675 91.7071 306.511 92.3167 304.621 93.5358C302.792 94.6939 301.33 96.3397 300.232 98.4732C299.196 100.546 298.678 102.984 298.678 105.788C298.678 108.531 299.196 110.969 300.232 113.102C301.33 115.175 302.823 116.821 304.713 118.04C306.602 119.259 308.766 119.868 311.204 119.868Z" fill="#FFFDFD"/>
<path d="M222.292 129.469L247.802 65.4658H259.048L284.649 129.469H273.403L267.094 113.742H239.756L233.538 129.469H222.292ZM243.322 104.325H263.528L253.471 78.7236L243.322 104.325Z" fill="#FFFDFD"/>
<path d="M448.79 114.251L449.208 115.029C450.038 116.579 451.26 117.895 452.901 118.973C454.575 120.033 456.409 120.562 458.425 120.562V121.514C456.231 121.514 454.22 120.935 452.391 119.777C450.623 118.619 449.282 117.186 448.368 115.48L439.499 119.411C440.474 121.667 441.876 123.648 443.705 125.355C445.533 127 447.728 128.28 450.288 129.194C452.688 130.052 455.303 130.507 458.131 130.561L458.7 130.567C461.9 130.567 464.778 130.084 467.335 129.119L467.843 128.92C470.358 127.834 472.362 126.346 473.859 124.457L474.152 124.074C475.737 122.002 476.529 119.594 476.529 116.851C476.529 114.9 476.072 112.98 475.158 111.091C474.243 109.14 472.841 107.403 470.952 105.879C469.062 104.294 466.624 103.136 463.637 102.404L458.243 101.125C456.292 100.637 454.798 100.027 453.762 99.296C452.726 98.5036 452.208 97.6498 452.208 96.7355C452.208 95.1509 452.787 93.9315 453.945 93.0782C455.103 92.1639 456.719 91.7072 458.792 91.7072L459.177 91.712C461.099 91.762 462.86 92.1873 464.46 92.9874C466.167 93.7798 467.325 94.9383 467.934 96.462L476.438 92.6212C475.767 90.6097 474.578 88.8722 472.872 87.4093C471.272 85.9809 469.377 84.8737 467.188 84.088L466.746 83.9357C464.574 83.1357 462.188 82.7103 459.588 82.6603L459.066 82.6554C453.519 82.6554 449.252 83.9053 446.265 86.4044C443.339 88.9035 441.877 92.4384 441.876 97.0099L441.89 97.589C442.033 100.464 443.248 103.044 445.534 105.33C447.972 107.707 451.354 109.445 455.682 110.542L459.98 111.731C461.991 112.218 463.546 112.858 464.643 113.651C465.74 114.382 466.288 115.449 466.289 116.851C466.289 118.314 465.557 119.472 464.094 120.325C462.692 121.118 460.803 121.514 458.425 121.514V120.562C460.711 120.562 462.419 120.178 463.625 119.496C464.843 118.783 465.336 117.912 465.336 116.851C465.336 115.813 464.977 115.082 464.262 114.548L464.115 114.443L464.1 114.434L464.085 114.423C463.127 113.731 461.704 113.129 459.755 112.656L459.726 112.649L455.449 111.465C451.285 110.409 447.906 108.76 445.366 106.478L444.869 106.013L444.86 106.004C442.264 103.409 440.923 100.4 440.923 97.0099C440.923 92.2176 442.468 88.3943 445.646 85.6798L445.654 85.674C448.872 82.9812 453.389 81.7032 459.066 81.7032C461.956 81.7033 464.62 82.1411 467.047 83.0314C469.529 83.8587 471.682 85.0749 473.492 86.6866C475.207 88.1568 476.449 89.9013 477.198 91.9142L477.341 92.3204L477.613 93.1359L467.419 97.7394L467.05 96.8156C466.576 95.6293 465.699 94.6821 464.337 93.9865L464.059 93.8507L464.034 93.839C462.471 93.0575 460.729 92.6594 458.792 92.6593C456.848 92.6593 455.469 93.0892 454.536 93.8263L454.523 93.8361L454.51 93.8448C453.623 94.4985 453.161 95.4179 453.161 96.7355L453.174 96.9298C453.239 97.391 453.544 97.9254 454.327 98.5275C455.227 99.159 456.588 99.729 458.473 100.2L463.857 101.478L463.864 101.48C466.951 102.236 469.526 103.445 471.549 105.138C473.534 106.738 475.032 108.583 476.015 110.676C476.987 112.685 477.482 114.746 477.482 116.851L477.471 117.399C477.371 120.111 476.523 122.534 474.918 124.638C473.281 126.864 471.036 128.579 468.22 129.795L468.212 129.798L468.204 129.802C465.389 130.953 462.215 131.519 458.7 131.519C455.752 131.519 453.008 131.104 450.472 130.265L449.967 130.092C447.469 129.2 445.287 127.965 443.434 126.383L443.068 126.063L443.061 126.057L443.055 126.051C441.132 124.256 439.653 122.167 438.625 119.789L438.25 118.923L448.79 114.251Z" fill="#D10A11"/>
<path d="M433.185 106.61C433.185 101.917 432.179 97.7722 430.167 94.1759C428.339 90.8043 425.814 88.1292 422.592 86.1505L421.939 85.7638C418.625 83.8209 414.855 82.7886 410.629 82.6671L409.778 82.6554C405.206 82.6554 401.153 83.6914 397.618 85.7638L396.963 86.1505C393.738 88.1292 391.183 90.8044 389.297 94.1759C387.347 97.7722 386.372 101.917 386.372 106.61L386.383 107.484C386.501 111.82 387.503 115.674 389.388 119.045C391.4 122.641 394.174 125.476 397.709 127.549C401.081 129.435 404.881 130.436 409.11 130.554L409.961 130.567C414.19 130.566 417.99 129.682 421.362 127.914L422.03 127.549C425.344 125.606 427.963 122.993 429.884 119.711L430.259 119.045C432.088 115.674 433.059 111.82 433.173 107.484L433.185 106.61ZM421.901 106.61C421.901 104.047 421.415 101.832 420.473 99.9415L420.279 99.5675L420.271 99.5538L420.264 99.5392C419.304 97.6186 418.006 96.1186 416.371 95.0157L416.04 94.8009L416.022 94.7892C414.242 93.6208 412.171 93.0255 409.778 93.0255C407.376 93.0256 405.299 93.5952 403.517 94.7091C401.725 95.829 400.317 97.399 399.292 99.4474C398.272 101.489 397.748 103.869 397.748 106.61L397.753 107.12C397.815 109.641 398.332 111.846 399.284 113.756C400.366 115.746 401.807 117.325 403.609 118.512C405.456 119.628 407.564 120.196 409.961 120.196V121.149L409.484 121.142C407.116 121.07 404.99 120.462 403.104 119.319C401.153 118.039 399.599 116.333 398.441 114.199C397.344 112.005 396.794 109.475 396.794 106.61C396.794 103.925 397.276 101.533 398.241 99.4366L398.441 99.0216C399.469 96.9646 400.872 95.3358 402.651 94.1359L403.012 93.9015C404.963 92.6825 407.218 92.0724 409.778 92.0724C412.338 92.0724 414.594 92.7132 416.544 93.9933C418.495 95.2124 420.019 96.9192 421.116 99.1134C422.274 101.247 422.853 103.746 422.853 106.61C422.853 109.475 422.305 112.005 421.208 114.199C420.11 116.333 418.586 118.039 416.635 119.319C414.685 120.538 412.46 121.148 409.961 121.149V120.196C412.298 120.196 414.344 119.628 416.13 118.512C417.931 117.326 419.339 115.749 420.36 113.764C421.378 111.724 421.901 109.348 421.901 106.61ZM434.137 106.61C434.137 111.439 433.133 115.744 431.096 119.499C429.063 123.248 426.197 126.21 422.512 128.37L422.501 128.377C418.807 130.479 414.619 131.519 409.961 131.519C405.245 131.519 400.997 130.479 397.244 128.38L397.236 128.375L397.227 128.37C393.775 126.347 391.016 123.62 388.959 120.203L388.557 119.511C386.456 115.754 385.418 111.444 385.418 106.61C385.418 101.782 386.423 97.4768 388.459 93.7218L388.466 93.7111C390.561 89.9652 393.459 87.0342 397.147 84.9357C400.842 82.7724 405.062 81.7033 409.778 81.7032C414.494 81.7032 418.714 82.7725 422.409 84.9357H422.41C426.097 87.0336 428.964 89.9645 430.999 93.7111C433.1 97.4682 434.137 101.777 434.137 106.61Z" fill="#FFFDFD"/>
<path d="M379.843 120.966H355.339L379.661 91.2501V83.7521H342.447V92.3468H366.768L342.447 121.88V129.469H379.843V120.966ZM380.613 91.59L357.349 120.013H380.795V130.421H341.495V121.538L364.75 93.2999H341.495V82.7999H380.613V91.59Z" fill="#FFFDFD"/>
<path d="M333.422 124.714V83.7521H323.182V91.1583C321.597 88.4154 319.524 86.3127 316.964 84.8497C314.621 83.4782 311.957 82.7499 308.971 82.6642L308.37 82.6554C304.225 82.6554 300.597 83.6306 297.489 85.5812C294.441 87.5317 292.034 90.2446 290.266 93.7189C288.559 97.1932 287.706 101.307 287.706 106.062C287.706 110.511 288.559 114.443 290.266 117.857C292.034 121.209 294.441 123.83 297.489 125.72C300.403 127.491 303.774 128.432 307.599 128.543L308.37 128.555C311.6 128.555 314.465 127.853 316.964 126.451C319.524 124.988 321.597 122.977 323.182 120.417V124.988L323.175 125.621C323.107 128.75 322.531 131.343 321.445 133.401L321.222 133.805C320.083 135.794 318.542 137.275 316.599 138.246C314.527 139.343 312.179 139.893 309.558 139.893V138.94C312.042 138.94 314.233 138.421 316.153 137.404L316.172 137.395C318.054 136.454 319.53 134.988 320.602 132.956C321.666 130.941 322.229 128.302 322.229 124.988V123.329C320.87 124.911 319.273 126.229 317.437 127.278L317.43 127.282C314.771 128.774 311.742 129.507 308.37 129.507C304.344 129.507 300.75 128.645 297.616 126.896L296.995 126.534L296.988 126.529C293.788 124.545 291.265 121.794 289.423 118.301L289.418 118.292L289.415 118.282C287.632 114.716 286.753 110.635 286.753 106.062C286.753 101.194 287.628 96.9304 289.412 93.299L289.417 93.2863C291.256 89.673 293.775 86.8273 296.976 84.7784L296.983 84.7745C300.262 82.7169 304.069 81.7033 308.37 81.7032C311.749 81.7032 314.784 82.4695 317.446 84.0275C319.282 85.0778 320.875 86.4372 322.229 88.0968V82.7999H334.375V124.714C334.375 130.012 333.377 134.567 331.333 138.335C329.296 142.152 326.418 145.035 322.706 146.955L322.705 146.954C319.012 148.925 314.743 149.897 309.924 149.897C306.846 149.897 304.023 149.652 301.46 149.156L300.952 149.054L300.947 149.053C298.674 148.566 296.689 148.003 294.998 147.361L294.291 147.081C292.494 146.338 291.054 145.607 290 144.883L289.331 144.422L294.031 134.584L294.898 135.018C295.522 135.33 296.302 135.695 297.242 136.113L298.235 136.55L298.244 136.554L298.251 136.558C299.475 137.119 300.891 137.618 302.503 138.054L303.207 138.236C305.067 138.702 307.182 138.94 309.558 138.94V139.893L308.656 139.881C306.576 139.828 304.682 139.587 302.975 139.16C301.025 138.673 299.318 138.094 297.855 137.424C296.453 136.814 295.326 136.296 294.472 135.869L290.541 144.098C291.516 144.768 292.887 145.47 294.655 146.201C296.422 146.933 298.587 147.573 301.147 148.121C303.44 148.601 305.967 148.871 308.727 148.931L309.924 148.944C314.618 148.944 318.732 147.999 322.267 146.109C325.802 144.281 328.546 141.538 330.497 137.881C332.447 134.285 333.422 129.895 333.422 124.714ZM321.864 105.788C321.864 103.262 321.452 101.088 320.656 99.2433L320.492 98.879L320.487 98.8693C319.635 97.0049 318.474 95.5707 317.013 94.5343L316.717 94.3322L316.708 94.3263L316.698 94.3195C315.102 93.2189 313.252 92.6593 311.113 92.6593C308.842 92.6593 306.86 93.2246 305.137 94.3361L305.13 94.34C303.463 95.396 302.111 96.9041 301.083 98.8986C300.126 100.814 299.63 103.101 299.63 105.788L299.636 106.276C299.694 108.689 300.183 110.816 301.083 112.674C302.043 114.48 303.316 115.924 304.906 117.024L305.229 117.239C306.952 118.351 308.934 118.916 311.205 118.916V119.868L310.75 119.861C308.647 119.795 306.753 119.261 305.07 118.261L304.712 118.04C302.823 116.821 301.329 115.175 300.232 113.103C299.261 111.103 298.745 108.835 298.684 106.299L298.678 105.788C298.678 102.984 299.196 100.545 300.232 98.4728C301.329 96.3394 302.792 94.6934 304.621 93.5353C306.51 92.3162 308.675 91.7072 311.113 91.7072L311.543 91.714C313.683 91.7854 315.581 92.3924 317.239 93.5353C319.006 94.6934 320.378 96.3395 321.353 98.4728C322.328 100.545 322.816 102.984 322.816 105.788L322.81 106.299C322.753 108.835 322.267 111.103 321.353 113.103C320.378 115.175 319.006 116.821 317.239 118.04C315.532 119.259 313.521 119.868 311.205 119.868V118.916C313.344 118.916 315.157 118.356 316.685 117.265L316.692 117.26L316.698 117.256C318.317 116.139 319.582 114.628 320.491 112.698C321.398 110.71 321.864 108.414 321.864 105.788Z" fill="#FFFDFD"/>
<path d="M259.693 64.5138L286.056 130.421H272.759L266.45 114.694H240.403L234.186 130.421H220.887L246.917 65.1134L247.156 64.5138H259.693ZM247.802 65.4659L222.292 129.469H233.539L239.755 113.742H267.094L273.403 129.469H284.649L259.048 65.4659H247.802ZM263.529 104.324H243.322L253.471 78.7238L263.529 104.324ZM244.724 103.372H262.131L253.466 81.3165L244.724 103.372Z" fill="#FFFDFD"/>
</svg>
