<svg width="486" height="203" viewBox="0 0 486 203" fill="none" xmlns="http://www.w3.org/2000/svg">
<g filter="url(#filter0_d_2071_153)">
<path d="M192.015 97.1292C192.015 146.557 157.423 190.789 108.761 190.789C160.488 190.789 206.931 148.856 206.931 97.1292C206.931 45.402 160.488 3.46887 108.761 3.46887C157.423 3.46887 192.015 47.701 192.015 97.1292Z" fill="#FFFDFD"/>
<path d="M108.761 190.789C157.423 190.789 192.015 146.557 192.015 97.1292C192.015 47.701 157.423 3.46887 108.761 3.46887M108.761 190.789C59.8398 190.789 19.851 155.344 15.6383 107.517M108.761 190.789C160.488 190.789 206.931 148.856 206.931 97.1292C206.931 45.402 160.488 3.46887 108.761 3.46887M108.761 3.46887C81.7906 3.46887 57.4825 14.8689 40.3927 33.1132C39.5771 33.9839 40.2055 35.3827 41.3985 35.3827H59.7188H148.806C149.965 35.3827 150.613 36.7197 149.895 37.6297L61.4914 149.691C60.7735 150.601 61.4217 151.938 62.5808 151.938H159.56C160.642 151.938 161.308 150.754 160.745 149.829L106.105 60.0036C105.596 59.1675 104.405 59.1065 103.814 59.8863L78.0459 93.8663M78.0459 93.8663C74.7112 91.2886 69.9183 91.9024 67.3407 95.2371C64.763 98.5718 65.3767 103.365 68.7115 105.942C72.0462 108.52 76.8391 107.906 79.4167 104.572C81.9944 101.237 81.3806 96.4439 78.0459 93.8663ZM15.6383 107.517C19.8426 107.22 23.0104 103.571 22.7138 99.3671C22.4171 95.1628 18.7684 91.995 14.564 92.2916C10.3597 92.5883 7.19184 96.237 7.48848 100.441C7.78513 104.646 11.4339 107.814 15.6383 107.517Z" stroke="#FFFDFD" stroke-width="6.9378"/>
<path d="M462.7 130.566C459.652 130.566 456.848 130.109 454.288 129.195C451.728 128.28 449.534 127 447.705 125.354C445.876 123.648 444.474 121.667 443.499 119.411L452.368 115.48C453.282 117.186 454.623 118.619 456.391 119.777C458.22 120.935 460.231 121.514 462.426 121.514C464.803 121.514 466.692 121.118 468.094 120.326C469.557 119.472 470.289 118.314 470.289 116.851C470.289 115.449 469.74 114.382 468.643 113.651C467.546 112.859 465.992 112.219 463.98 111.731L459.683 110.542C455.355 109.445 451.972 107.708 449.534 105.331C447.095 102.892 445.876 100.119 445.876 97.0102C445.876 92.4386 447.339 88.9032 450.265 86.404C453.252 83.9049 457.519 82.6553 463.066 82.6553C465.87 82.6553 468.43 83.082 470.746 83.9353C473.123 84.7278 475.165 85.8859 476.872 87.4098C478.579 88.8727 479.767 90.6099 480.438 92.6215L471.935 96.4616C471.325 94.9378 470.167 93.7796 468.46 92.9872C466.753 92.1338 464.864 91.7071 462.791 91.7071C460.719 91.7071 459.104 92.1643 457.945 93.0786C456.787 93.932 456.208 95.1511 456.208 96.7359C456.208 97.6503 456.726 98.5036 457.763 99.2961C458.799 100.028 460.292 100.637 462.243 101.125L467.637 102.405C470.624 103.136 473.062 104.294 474.952 105.879C476.842 107.403 478.244 109.14 479.158 111.091C480.072 112.981 480.529 114.901 480.529 116.851C480.529 119.594 479.737 122.002 478.152 124.074C476.628 126.147 474.525 127.762 471.843 128.92C469.161 130.018 466.113 130.566 462.7 130.566Z" fill="#FFFDFD"/>
<path d="M413.961 130.566C409.389 130.566 405.305 129.56 401.709 127.549C398.173 125.476 395.4 122.642 393.388 119.046C391.377 115.449 390.371 111.304 390.371 106.611C390.371 101.917 391.346 97.7722 393.297 94.1758C395.308 90.5795 398.082 87.7755 401.617 85.764C405.153 83.6915 409.206 82.6553 413.778 82.6553C418.35 82.6553 422.403 83.6915 425.938 85.764C429.474 87.7755 432.217 90.5795 434.167 94.1758C436.179 97.7722 437.185 101.917 437.185 106.611C437.185 111.304 436.209 115.449 434.259 119.046C432.308 122.642 429.565 125.476 426.03 127.549C422.495 129.56 418.471 130.566 413.961 130.566ZM413.961 121.149C416.46 121.149 418.685 120.539 420.635 119.32C422.586 118.04 424.11 116.333 425.207 114.2C426.304 112.005 426.853 109.476 426.853 106.611C426.853 103.746 426.274 101.247 425.116 99.1132C424.018 96.9188 422.495 95.2121 420.544 93.993C418.593 92.7129 416.338 92.0729 413.778 92.0729C411.218 92.0729 408.962 92.6824 407.012 93.9015C405.061 95.1206 403.537 96.8274 402.44 99.0218C401.343 101.216 400.794 103.746 400.794 106.611C400.794 109.476 401.343 112.005 402.44 114.2C403.598 116.333 405.153 118.04 407.103 119.32C409.115 120.539 411.401 121.149 413.961 121.149Z" fill="#FFFDFD"/>
<path d="M346.447 129.469V121.88L370.768 92.3471H346.447V83.7524H383.66V91.2499L359.339 120.966H383.843V129.469H346.447Z" fill="#FFFDFD"/>
<path d="M313.924 148.944C310.694 148.944 307.768 148.67 305.147 148.121C302.587 147.573 300.423 146.933 298.655 146.201C296.887 145.47 295.516 144.769 294.54 144.098L298.472 135.869C299.325 136.296 300.453 136.814 301.855 137.424C303.318 138.094 305.025 138.673 306.975 139.161C308.926 139.648 311.12 139.892 313.559 139.892C316.18 139.892 318.526 139.344 320.599 138.246C322.671 137.21 324.287 135.595 325.445 133.401C326.603 131.206 327.182 128.402 327.182 124.989V120.417C325.597 122.977 323.525 124.989 320.965 126.452C318.465 127.854 315.601 128.555 312.37 128.555C308.225 128.555 304.598 127.61 301.489 125.72C298.442 123.831 296.034 121.209 294.266 117.857C292.559 114.443 291.706 110.512 291.706 106.062C291.706 101.308 292.559 97.1931 294.266 93.7187C296.034 90.2442 298.442 87.5317 301.489 85.5811C304.598 83.6306 308.225 82.6553 312.37 82.6553C315.601 82.6553 318.465 83.3867 320.965 84.8497C323.525 86.3126 325.597 88.4155 327.182 91.1585V83.7525H337.423V124.714C337.423 129.896 336.447 134.284 334.497 137.881C332.546 141.538 329.803 144.281 326.268 146.11C322.732 147.999 318.618 148.944 313.924 148.944ZM315.204 119.868C317.521 119.868 319.532 119.259 321.239 118.04C323.007 116.821 324.378 115.175 325.353 113.102C326.329 110.969 326.816 108.531 326.816 105.788C326.816 102.984 326.329 100.546 325.353 98.4732C324.378 96.3397 323.007 94.6939 321.239 93.5358C319.471 92.3167 317.429 91.7071 315.113 91.7071C312.675 91.7071 310.511 92.3167 308.621 93.5358C306.792 94.6939 305.33 96.3397 304.232 98.4732C303.196 100.546 302.678 102.984 302.678 105.788C302.678 108.531 303.196 110.969 304.232 113.102C305.33 115.175 306.823 116.821 308.713 118.04C310.602 119.259 312.766 119.868 315.204 119.868Z" fill="#FFFDFD"/>
<path d="M226.292 129.469L251.802 65.4658H263.048L288.649 129.469H277.403L271.094 113.742H243.756L237.538 129.469H226.292ZM247.322 104.325H267.528L257.471 78.7236L247.322 104.325Z" fill="#FFFDFD"/>
<path d="M452.79 114.251L453.208 115.029C454.038 116.579 455.26 117.895 456.901 118.973C458.575 120.033 460.409 120.562 462.425 120.562V121.514C460.231 121.514 458.22 120.935 456.391 119.777C454.623 118.619 453.282 117.186 452.368 115.48L443.499 119.411C444.474 121.667 445.876 123.648 447.705 125.355C449.533 127 451.728 128.28 454.288 129.194C456.688 130.052 459.303 130.507 462.131 130.561L462.7 130.567C465.9 130.567 468.778 130.084 471.335 129.119L471.843 128.92C474.358 127.834 476.362 126.346 477.859 124.457L478.152 124.074C479.737 122.002 480.529 119.594 480.529 116.851C480.529 114.9 480.072 112.98 479.158 111.091C478.243 109.14 476.841 107.403 474.952 105.879C473.062 104.294 470.624 103.136 467.637 102.404L462.243 101.125C460.292 100.637 458.798 100.027 457.762 99.296C456.726 98.5036 456.208 97.6498 456.208 96.7355C456.208 95.1509 456.787 93.9315 457.945 93.0782C459.103 92.1639 460.719 91.7072 462.792 91.7072L463.177 91.712C465.099 91.762 466.86 92.1873 468.46 92.9874C470.167 93.7798 471.325 94.9383 471.934 96.462L480.438 92.6212C479.767 90.6097 478.578 88.8722 476.872 87.4093C475.272 85.9809 473.377 84.8737 471.188 84.088L470.746 83.9357C468.574 83.1357 466.188 82.7103 463.588 82.6603L463.066 82.6554C457.519 82.6554 453.252 83.9053 450.265 86.4044C447.339 88.9035 445.877 92.4384 445.876 97.0099L445.89 97.589C446.033 100.464 447.248 103.044 449.534 105.33C451.972 107.707 455.354 109.445 459.682 110.542L463.98 111.731C465.991 112.218 467.546 112.858 468.643 113.651C469.74 114.382 470.288 115.449 470.289 116.851C470.289 118.314 469.557 119.472 468.094 120.325C466.692 121.118 464.803 121.514 462.425 121.514V120.562C464.711 120.562 466.419 120.178 467.625 119.496C468.843 118.783 469.336 117.912 469.336 116.851C469.336 115.813 468.977 115.082 468.262 114.548L468.115 114.443L468.1 114.434L468.085 114.423C467.127 113.731 465.704 113.129 463.755 112.656L463.726 112.649L459.449 111.465C455.285 110.409 451.906 108.76 449.366 106.478L448.869 106.013L448.86 106.004C446.264 103.409 444.923 100.4 444.923 97.0099C444.923 92.2176 446.468 88.3943 449.646 85.6798L449.654 85.674C452.872 82.9812 457.389 81.7032 463.066 81.7032C465.956 81.7033 468.62 82.1411 471.047 83.0314C473.529 83.8587 475.682 85.0749 477.492 86.6866C479.207 88.1568 480.449 89.9013 481.198 91.9142L481.341 92.3204L481.613 93.1359L471.419 97.7394L471.05 96.8156C470.576 95.6293 469.699 94.6821 468.337 93.9865L468.059 93.8507L468.034 93.839C466.471 93.0575 464.729 92.6594 462.792 92.6593C460.848 92.6593 459.469 93.0892 458.536 93.8263L458.523 93.8361L458.51 93.8448C457.623 94.4985 457.161 95.4179 457.161 96.7355L457.174 96.9298C457.239 97.391 457.544 97.9254 458.327 98.5275C459.227 99.159 460.588 99.729 462.473 100.2L467.857 101.478L467.864 101.48C470.951 102.236 473.526 103.445 475.549 105.138C477.534 106.738 479.032 108.583 480.015 110.676C480.987 112.685 481.482 114.746 481.482 116.851L481.471 117.399C481.371 120.111 480.523 122.534 478.918 124.638C477.281 126.864 475.036 128.579 472.22 129.795L472.212 129.798L472.204 129.802C469.389 130.953 466.215 131.519 462.7 131.519C459.752 131.519 457.008 131.104 454.472 130.265L453.967 130.092C451.469 129.2 449.287 127.965 447.434 126.383L447.068 126.063L447.061 126.057L447.055 126.051C445.132 124.256 443.653 122.167 442.625 119.789L442.25 118.923L452.79 114.251Z" fill="#FFFDFD"/>
<path d="M437.185 106.61C437.185 101.917 436.179 97.7722 434.167 94.1759C432.339 90.8043 429.814 88.1292 426.592 86.1505L425.939 85.7638C422.625 83.8209 418.855 82.7886 414.629 82.6671L413.778 82.6554C409.206 82.6554 405.153 83.6914 401.618 85.7638L400.963 86.1505C397.738 88.1292 395.183 90.8044 393.297 94.1759C391.347 97.7722 390.372 101.917 390.372 106.61L390.383 107.484C390.501 111.82 391.503 115.674 393.388 119.045C395.4 122.641 398.174 125.476 401.709 127.549C405.081 129.435 408.881 130.436 413.11 130.554L413.961 130.567C418.19 130.566 421.99 129.682 425.362 127.914L426.03 127.549C429.344 125.606 431.963 122.993 433.884 119.711L434.259 119.045C436.088 115.674 437.059 111.82 437.173 107.484L437.185 106.61ZM425.901 106.61C425.901 104.047 425.415 101.832 424.473 99.9415L424.279 99.5675L424.271 99.5538L424.264 99.5392C423.304 97.6186 422.006 96.1186 420.371 95.0157L420.04 94.8009L420.022 94.7892C418.242 93.6208 416.171 93.0255 413.778 93.0255C411.376 93.0256 409.299 93.5952 407.517 94.7091C405.725 95.829 404.317 97.399 403.292 99.4474C402.272 101.489 401.748 103.869 401.748 106.61L401.753 107.12C401.815 109.641 402.332 111.846 403.284 113.756C404.366 115.745 405.807 117.325 407.609 118.512C409.456 119.628 411.564 120.196 413.961 120.196V121.149L413.484 121.142C411.116 121.07 408.99 120.462 407.104 119.319C405.153 118.039 403.599 116.333 402.441 114.199C401.344 112.005 400.794 109.475 400.794 106.61C400.794 103.925 401.276 101.533 402.241 99.4366L402.441 99.0216C403.469 96.9646 404.872 95.3358 406.651 94.1359L407.012 93.9015C408.963 92.6825 411.218 92.0724 413.778 92.0724C416.338 92.0724 418.594 92.7132 420.544 93.9933C422.495 95.2124 424.019 96.9192 425.116 99.1134C426.274 101.247 426.853 103.746 426.853 106.61C426.853 109.475 426.305 112.005 425.208 114.199C424.11 116.333 422.586 118.039 420.635 119.319C418.685 120.538 416.46 121.148 413.961 121.149V120.196C416.298 120.196 418.344 119.628 420.13 118.512C421.931 117.326 423.339 115.749 424.36 113.764C425.378 111.724 425.901 109.348 425.901 106.61ZM438.137 106.61C438.137 111.439 437.133 115.744 435.096 119.499C433.063 123.248 430.197 126.21 426.512 128.37L426.501 128.377C422.807 130.479 418.619 131.519 413.961 131.519C409.245 131.519 404.997 130.479 401.244 128.38L401.236 128.375L401.227 128.37C397.775 126.347 395.016 123.62 392.959 120.203L392.557 119.511C390.456 115.754 389.418 111.444 389.418 106.61C389.418 101.782 390.423 97.4768 392.459 93.7218L392.466 93.7111C394.561 89.9653 397.459 87.0342 401.147 84.9357C404.842 82.7724 409.062 81.7033 413.778 81.7032C418.494 81.7032 422.714 82.7725 426.409 84.9357H426.41C430.097 87.0336 432.964 89.9645 434.999 93.7111C437.1 97.4682 438.137 101.777 438.137 106.61Z" fill="#FFFDFD"/>
<path d="M383.843 120.966H359.339L383.661 91.2501V83.7521H346.447V92.3468H370.768L346.447 121.88V129.469H383.843V120.966ZM384.613 91.59L361.349 120.013H384.795V130.421H345.495V121.538L368.75 93.2999H345.495V82.7999H384.613V91.59Z" fill="#FFFDFD"/>
<path d="M337.422 124.714V83.7521H327.182V91.1583C325.597 88.4154 323.524 86.3127 320.964 84.8497C318.621 83.4782 315.957 82.7499 312.971 82.6642L312.37 82.6554C308.225 82.6554 304.597 83.6306 301.489 85.5812C298.441 87.5317 296.034 90.2446 294.266 93.7189C292.559 97.1932 291.706 101.307 291.706 106.062C291.706 110.511 292.559 114.443 294.266 117.857C296.034 121.209 298.441 123.83 301.489 125.72C304.403 127.491 307.774 128.432 311.599 128.543L312.37 128.555C315.6 128.555 318.465 127.853 320.964 126.451C323.524 124.988 325.597 122.977 327.182 120.417V124.988L327.175 125.621C327.107 128.75 326.531 131.343 325.445 133.401L325.222 133.805C324.083 135.794 322.542 137.275 320.599 138.246C318.527 139.343 316.179 139.893 313.558 139.893V138.94C316.042 138.94 318.233 138.421 320.153 137.404L320.172 137.395C322.054 136.454 323.53 134.988 324.602 132.956C325.666 130.941 326.229 128.302 326.229 124.988V123.329C324.87 124.911 323.273 126.229 321.437 127.278L321.43 127.282C318.771 128.774 315.742 129.507 312.37 129.507C308.344 129.507 304.75 128.645 301.616 126.896L300.995 126.534L300.988 126.529C297.788 124.545 295.265 121.794 293.423 118.301L293.418 118.292L293.415 118.282C291.632 114.716 290.753 110.635 290.753 106.062C290.753 101.194 291.628 96.9304 293.412 93.299L293.417 93.2863C295.256 89.673 297.775 86.8273 300.976 84.7784L300.983 84.7745C304.262 82.7169 308.069 81.7033 312.37 81.7032C315.749 81.7032 318.784 82.4695 321.446 84.0275C323.282 85.0778 324.875 86.4372 326.229 88.0968V82.7999H338.375V124.714C338.375 130.012 337.377 134.567 335.333 138.335C333.296 142.152 330.418 145.035 326.706 146.955L326.705 146.954C323.012 148.925 318.743 149.897 313.924 149.897C310.846 149.897 308.023 149.652 305.46 149.156L304.952 149.054L304.947 149.053C302.674 148.566 300.689 148.003 298.998 147.361L298.291 147.081C296.494 146.338 295.054 145.607 294 144.883L293.331 144.422L298.031 134.584L298.898 135.018C299.522 135.33 300.302 135.695 301.242 136.113L302.235 136.55L302.244 136.554L302.251 136.558C303.475 137.119 304.891 137.618 306.503 138.054L307.207 138.236C309.067 138.702 311.182 138.94 313.558 138.94V139.893L312.656 139.881C310.576 139.828 308.682 139.587 306.975 139.16C305.025 138.673 303.318 138.094 301.855 137.424C300.453 136.814 299.326 136.296 298.472 135.869L294.541 144.098C295.516 144.768 296.887 145.47 298.655 146.201C300.422 146.933 302.587 147.573 305.147 148.121C307.44 148.601 309.967 148.871 312.727 148.931L313.924 148.944C318.618 148.944 322.732 147.999 326.267 146.109C329.802 144.281 332.546 141.538 334.497 137.881C336.447 134.285 337.422 129.895 337.422 124.714ZM325.864 105.788C325.864 103.262 325.452 101.088 324.656 99.2433L324.492 98.879L324.487 98.8693C323.635 97.0049 322.474 95.5707 321.013 94.5343L320.717 94.3322L320.708 94.3263L320.698 94.3195C319.102 93.2189 317.252 92.6593 315.113 92.6593C312.842 92.6593 310.86 93.2246 309.137 94.3361L309.13 94.34C307.463 95.396 306.111 96.9041 305.083 98.8986C304.126 100.814 303.63 103.101 303.63 105.788L303.636 106.276C303.694 108.689 304.183 110.816 305.083 112.674C306.043 114.48 307.316 115.924 308.906 117.024L309.229 117.239C310.952 118.351 312.934 118.916 315.205 118.916V119.868L314.75 119.861C312.647 119.795 310.753 119.261 309.07 118.261L308.712 118.04C306.823 116.821 305.329 115.175 304.232 113.103C303.261 111.103 302.745 108.835 302.684 106.299L302.678 105.788C302.678 102.984 303.196 100.545 304.232 98.4728C305.329 96.3394 306.792 94.6934 308.621 93.5353C310.51 92.3162 312.675 91.7072 315.113 91.7072L315.543 91.714C317.683 91.7854 319.581 92.3924 321.239 93.5353C323.006 94.6934 324.378 96.3395 325.353 98.4728C326.328 100.545 326.816 102.984 326.816 105.788L326.81 106.299C326.753 108.835 326.267 111.103 325.353 113.103C324.378 115.175 323.006 116.821 321.239 118.04C319.532 119.259 317.521 119.868 315.205 119.868V118.916C317.344 118.916 319.157 118.356 320.685 117.265L320.692 117.26L320.698 117.256C322.317 116.139 323.582 114.628 324.491 112.698C325.398 110.71 325.864 108.414 325.864 105.788Z" fill="#FFFDFD"/>
<path d="M263.693 64.5138L290.056 130.421H276.759L270.45 114.694H244.403L238.186 130.421H224.887L250.917 65.1134L251.156 64.5138H263.693ZM251.802 65.4659L226.292 129.469H237.539L243.755 113.742H271.094L277.403 129.469H288.649L263.048 65.4659H251.802ZM267.529 104.324H247.322L257.471 78.7238L267.529 104.324ZM248.724 103.372H266.131L257.466 81.3165L248.724 103.372Z" fill="#FFFDFD"/>
</g>
<defs>
<filter id="filter0_d_2071_153" x="0" y="0" width="485.613" height="202.258" filterUnits="userSpaceOnUse" color-interpolation-filters="sRGB">
<feFlood flood-opacity="0" result="BackgroundImageFix"/>
<feColorMatrix in="SourceAlpha" type="matrix" values="0 0 0 0 0 0 0 0 0 0 0 0 0 0 0 0 0 0 127 0" result="hardAlpha"/>
<feOffset dy="4"/>
<feGaussianBlur stdDeviation="2"/>
<feComposite in2="hardAlpha" operator="out"/>
<feColorMatrix type="matrix" values="0 0 0 0 0 0 0 0 0 0 0 0 0 0 0 0 0 0 0.25 0"/>
<feBlend mode="normal" in2="BackgroundImageFix" result="effect1_dropShadow_2071_153"/>
<feBlend mode="normal" in="SourceGraphic" in2="effect1_dropShadow_2071_153" result="shape"/>
</filter>
</defs>
</svg>
