<svg width="305" height="287" viewBox="0 0 305 287" fill="none" xmlns="http://www.w3.org/2000/svg">
<path d="M277.023 143.111C277.023 215.939 226.055 281.111 154.356 281.111C230.571 281.111 299.001 219.326 299.001 143.111C299.001 66.8958 230.571 5.11111 154.356 5.11111C226.055 5.11111 277.023 70.2832 277.023 143.111Z" fill="#D10A11"/>
<path d="M154.356 281.111C226.055 281.111 277.023 215.939 277.023 143.111C277.023 70.2832 226.055 5.11111 154.356 5.11111M154.356 281.111C82.2746 281.111 23.3547 228.886 17.1477 158.417M154.356 281.111C230.571 281.111 299.001 219.326 299.001 143.111C299.001 66.8958 230.571 5.11111 154.356 5.11111M154.356 5.11111C114.617 5.11111 78.8014 21.908 53.6211 48.7894C52.4194 50.0723 53.3452 52.1333 55.1031 52.1333H82.0964H213.358C215.066 52.1333 216.021 54.1032 214.963 55.444L84.7081 220.556C83.6504 221.897 84.6054 223.867 86.3132 223.867H229.203C230.798 223.867 231.779 222.122 230.95 220.76L150.442 88.41C149.693 87.178 147.938 87.0881 147.067 88.2371L109.1 138.304M109.1 138.304C104.186 134.506 97.1244 135.41 93.3265 140.323C89.5286 145.237 90.4328 152.299 95.3462 156.097C100.26 159.894 107.322 158.99 111.12 154.077C114.917 149.163 114.013 142.101 109.1 138.304ZM17.1477 158.417C23.3424 157.979 28.0099 152.603 27.5728 146.409C27.1357 140.214 21.7596 135.546 15.5648 135.983C9.3701 136.421 4.7026 141.797 5.13968 147.991C5.57677 154.186 10.9529 158.854 17.1477 158.417Z" stroke="#D10A11" stroke-width="10.2222"/>
</svg>
