<svg width="313" height="295" viewBox="0 0 313 295" fill="none" xmlns="http://www.w3.org/2000/svg">
<g filter="url(#filter0_d_2071_143)">
<path d="M281.023 143.111C281.023 215.939 230.055 281.111 158.356 281.111C234.571 281.111 303.001 219.326 303.001 143.111C303.001 66.8958 234.571 5.11111 158.356 5.11111C230.055 5.11111 281.023 70.2832 281.023 143.111Z" fill="#0E0E0E"/>
<path d="M158.356 281.111C230.055 281.111 281.023 215.939 281.023 143.111C281.023 70.2832 230.055 5.11111 158.356 5.11111M158.356 281.111C86.2746 281.111 27.3547 228.886 21.1477 158.417M158.356 281.111C234.571 281.111 303.001 219.326 303.001 143.111C303.001 66.8958 234.571 5.11111 158.356 5.11111M158.356 5.11111C118.617 5.11111 82.8014 21.908 57.6211 48.7894C56.4194 50.0723 57.3452 52.1333 59.1031 52.1333H86.0964H217.358C219.066 52.1333 220.021 54.1032 218.963 55.444L88.7081 220.556C87.6504 221.897 88.6054 223.867 90.3132 223.867H233.203C234.798 223.867 235.779 222.122 234.95 220.76L154.442 88.41C153.693 87.178 151.938 87.0881 151.067 88.2371L113.1 138.304M113.1 138.304C108.186 134.506 101.124 135.41 97.3265 140.323C93.5286 145.237 94.4328 152.299 99.3462 156.097C104.26 159.894 111.322 158.99 115.12 154.077C118.917 149.163 118.013 142.101 113.1 138.304ZM21.1477 158.417C27.3424 157.979 32.0099 152.603 31.5728 146.409C31.1357 140.214 25.7596 135.546 19.5648 135.983C13.3701 136.421 8.7026 141.797 9.13968 147.991C9.57677 154.186 14.9529 158.854 21.1477 158.417Z" stroke="#0E0E0E" stroke-width="10.2222"/>
</g>
<defs>
<filter id="filter0_d_2071_143" x="0" y="0" width="312.112" height="294.222" filterUnits="userSpaceOnUse" color-interpolation-filters="sRGB">
<feFlood flood-opacity="0" result="BackgroundImageFix"/>
<feColorMatrix in="SourceAlpha" type="matrix" values="0 0 0 0 0 0 0 0 0 0 0 0 0 0 0 0 0 0 127 0" result="hardAlpha"/>
<feOffset dy="4"/>
<feGaussianBlur stdDeviation="2"/>
<feComposite in2="hardAlpha" operator="out"/>
<feColorMatrix type="matrix" values="0 0 0 0 0 0 0 0 0 0 0 0 0 0 0 0 0 0 0.25 0"/>
<feBlend mode="normal" in2="BackgroundImageFix" result="effect1_dropShadow_2071_143"/>
<feBlend mode="normal" in="SourceGraphic" in2="effect1_dropShadow_2071_143" result="shape"/>
</filter>
</defs>
</svg>
